<svg width="40" height="40" viewBox="0 0 40 40" fill="none" xmlns="http://www.w3.org/2000/svg"> <path fill-rule="evenodd" clip-rule="evenodd" d="M20 1.33331L20.5814 1.3422C30.4286 1.64347 38.3565 9.57135 38.6578 19.4186L38.6667 20L38.6533 20.7057C38.4759 25.4 36.5333 29.8653 33.1993 33.1993C29.8654 36.5333 25.4001 38.4759 20.7058 38.6533L20 38.6666L19.4186 38.6578C9.57138 38.3565 1.6435 30.4286 1.34223 20.5814L1.33334 20L1.34223 19.4186C1.6435 9.57135 9.57138 1.64347 19.4186 1.3422L20 1.33331ZM12.8549 11.2889H9.23753L10.3435 16.7098H7.55557V20.2391H11.1038L11.5416 22.3383L12.2558 25.8907L13.0392 29.7199L16.4723 29.8583L17.6473 25.8907L18.615 22.3383L19.2371 20.2391H20.5735L21.2186 22.3383L22.2555 25.8907L23.4305 29.8583L26.8636 29.7199L27.693 25.8907L28.4303 22.3383L28.8451 20.2391H32.3472V16.6406H29.5824L29.8588 15.1873L30.6422 11.4273H27.0249L26.2645 15.2565L25.965 16.7098H23.2692L22.8315 15.2565L21.6564 11.2889H18.2694L17.0713 15.2565L16.6566 16.7098H13.9608L12.8549 11.2889ZM15.9245 20.2333L15.0845 23.3444L14.5478 20.2333H15.9245ZM25.4522 20.2333L24.9156 23.3444L24.0756 20.2333H25.4522Z" fill="white"/> </svg>